<svg width="295" height="330" viewBox="0 0 295 330" fill="none" xmlns="http://www.w3.org/2000/svg">
<path d="M29.981 266.797C32.6317 266.797 35.306 266.821 38.004 266.868C40.702 266.868 43.3527 266.916 45.956 267.01C48.5593 267.105 50.997 267.271 53.269 267.507L52.772 275.388H33.957C32.7737 275.388 31.8743 275.696 31.259 276.311C30.691 276.927 30.407 277.826 30.407 279.009V304.001C30.407 305.185 30.691 306.084 31.259 306.699C31.8743 307.315 32.7737 307.622 33.957 307.622H52.772L53.269 315.503C50.997 315.693 48.5593 315.858 45.956 316C43.3527 316.095 40.702 316.142 38.004 316.142C35.306 316.19 32.6317 316.213 29.981 316.213C26.857 316.213 24.3247 315.314 22.384 313.515C20.4907 311.669 19.544 309.279 19.544 306.344V276.666C19.544 273.684 20.4907 271.294 22.384 269.495C24.3247 267.697 26.857 266.797 29.981 266.797ZM20.822 286.677H50.145V294.345H20.822V286.677ZM133.579 267.01L120.231 313.018C119.994 313.87 119.521 314.58 118.811 315.148C118.148 315.716 117.344 316 116.397 316H106.457C105.463 316 104.611 315.716 103.901 315.148C103.238 314.58 102.812 313.87 102.623 313.018L89.2039 267.01H100.422L109.368 302.368C109.557 303.268 109.747 304.191 109.936 305.137C110.173 306.037 110.362 306.936 110.504 307.835H112.35C112.492 306.936 112.658 306.013 112.847 305.066C113.084 304.12 113.32 303.197 113.557 302.297L122.432 267.01H133.579ZM181.763 266.797C184.414 266.797 187.088 266.821 189.786 266.868C192.484 266.868 195.135 266.916 197.738 267.01C200.341 267.105 202.779 267.271 205.051 267.507L204.554 275.388H185.739C184.556 275.388 183.656 275.696 183.041 276.311C182.473 276.927 182.189 277.826 182.189 279.009V304.001C182.189 305.185 182.473 306.084 183.041 306.699C183.656 307.315 184.556 307.622 185.739 307.622H204.554L205.051 315.503C202.779 315.693 200.341 315.858 197.738 316C195.135 316.095 192.484 316.142 189.786 316.142C187.088 316.19 184.414 316.213 181.763 316.213C178.639 316.213 176.107 315.314 174.166 313.515C172.273 311.669 171.326 309.279 171.326 306.344V276.666C171.326 273.684 172.273 271.294 174.166 269.495C176.107 267.697 178.639 266.797 181.763 266.797ZM172.604 286.677H201.927V294.345H172.604V286.677ZM261.576 266.087C263.99 266.087 266.617 266.229 269.457 266.513C272.297 266.75 275.066 267.271 277.764 268.075L277.054 275.246C274.971 275.199 272.533 275.152 269.741 275.104C266.948 275.057 264.203 275.033 261.505 275.033C260.179 275.033 259.043 275.081 258.097 275.175C257.197 275.223 256.464 275.412 255.896 275.743C255.328 276.027 254.925 276.477 254.689 277.092C254.452 277.708 254.334 278.56 254.334 279.648C254.334 281.305 254.712 282.512 255.47 283.269C256.274 284.027 257.623 284.713 259.517 285.328L268.96 288.381C272.888 289.707 275.61 291.505 277.125 293.777C278.639 296.049 279.397 299.031 279.397 302.723C279.397 305.516 279.065 307.835 278.403 309.681C277.74 311.527 276.699 312.971 275.279 314.012C273.859 315.054 271.989 315.787 269.67 316.213C267.35 316.687 264.51 316.923 261.15 316.923C259.54 316.923 257.245 316.805 254.263 316.568C251.281 316.379 247.873 315.858 244.039 315.006L244.749 307.338C247.541 307.386 249.955 307.457 251.991 307.551C254.073 307.599 255.848 307.646 257.316 307.693C258.783 307.693 260.061 307.693 261.15 307.693C263.043 307.693 264.51 307.575 265.552 307.338C266.64 307.102 267.398 306.628 267.824 305.918C268.25 305.208 268.463 304.191 268.463 302.865C268.463 301.729 268.297 300.83 267.966 300.167C267.682 299.457 267.185 298.913 266.475 298.534C265.812 298.108 264.889 297.73 263.706 297.398L253.766 293.99C250.026 292.618 247.376 290.819 245.814 288.594C244.252 286.37 243.471 283.435 243.471 279.79C243.471 276.95 243.802 274.655 244.465 272.903C245.175 271.105 246.24 269.708 247.66 268.714C249.127 267.72 250.997 267.034 253.269 266.655C255.588 266.277 258.357 266.087 261.576 266.087Z" fill="#343C51"/>
<path fill-rule="evenodd" clip-rule="evenodd" d="M146.299 31.414L145.99 42.2211L136.419 42.4064C131.17 42.4681 116.288 42.7769 103.382 43.0857C84.7944 43.5179 79.175 43.8885 76.211 44.6913C74.1732 45.2471 71.1473 46.4204 69.48 47.3467C67.8127 48.2731 65.6514 50.0022 64.6634 51.1755C63.7371 52.3489 61.8228 56.1159 60.5261 59.5124C59.1675 62.9089 57.3767 67.7876 56.5122 70.3195C55.6477 72.8515 54.1039 78.2859 53.0541 82.3617C51.7573 87.2403 50.9545 92.1189 50.2753 103.482L54.5979 104.223C56.9445 104.593 62.9961 105.458 68.0598 106.137C73.0616 106.817 82.8801 107.928 89.9816 108.546C97.0213 109.225 109.001 110.09 116.658 110.46C124.315 110.831 134.01 111.201 145.99 111.386V141.646L139.198 141.832C135.431 141.955 125.057 141.708 116.041 141.337C107.025 140.967 95.2305 140.288 89.7963 139.794C84.3622 139.3 78.6193 138.867 74.0497 138.867L72.3824 142.387C71.4561 144.363 70.5916 147.204 70.4681 148.748C70.2828 150.786 70.4681 151.836 71.2091 152.577C71.7648 153.194 75.3464 154.677 79.1133 155.85C82.9419 156.961 89.9816 158.938 94.7365 160.111C99.4913 161.284 107.396 162.952 112.336 163.816C117.276 164.681 125.427 165.792 130.552 166.348C135.616 166.842 141.174 167.336 145.99 167.583V204.019L105.234 204.636L99.6766 208.033H70.3446V218.654C70.3446 227.856 70.2211 229.523 69.2948 230.82C68.6773 231.685 67.257 232.735 66.1454 233.167C64.6634 233.784 58.7353 233.97 41.136 233.97C20.511 233.97 17.9174 233.846 16.0031 232.858C14.7681 232.241 13.4096 230.882 12.792 229.647C11.8658 227.856 11.6805 225.756 11.6805 217.913C11.6188 208.712 11.557 208.28 10.1985 207.106C8.90169 205.995 8.71644 205.192 8.40768 198.769C8.16067 194.879 7.72841 183.763 7.3579 174.068C7.04914 164.372 6.30812 151.465 5.69061 145.352C4.70258 134.977 4.70258 133.865 5.69061 128.987C6.24637 126.084 7.54316 122.07 8.53118 120.032C9.58096 117.994 11.6188 114.906 13.1008 113.239C14.5828 111.51 17.2999 109.102 19.1525 107.866C21.005 106.631 23.7221 105.149 25.2659 104.655C26.8097 104.099 28.477 103.482 28.971 103.297C29.5885 103.111 28.4152 102.123 25.5746 100.456C23.1663 99.0972 17.9174 96.4418 13.8418 94.5274C9.76621 92.613 5.3201 90.3898 4.02331 89.5252C2.47952 88.5372 1.30624 87.1168 0.812228 85.7582C0.379967 84.5849 0.00945687 82.6705 0.00945687 81.5589C-0.0522948 80.509 0.194712 79.0269 0.565222 78.3476C0.87398 77.6683 2.17076 76.6802 3.34404 76.1862C4.51733 75.6922 7.2344 75.2599 9.33395 75.2599C11.4953 75.2599 16.5589 75.8157 20.6345 76.5567C24.7101 77.236 28.8475 78.3476 29.8972 78.9652C30.8853 79.5827 32.3673 81.1883 33.1083 82.4852C33.8493 83.782 34.4669 85.8817 34.5286 87.1168C34.5286 88.4137 34.1581 90.8221 33.7258 92.5512C33.0466 95.4537 33.0466 95.639 34.5286 97.1828C35.3931 98.0474 36.7517 98.7267 37.6162 98.7267C39.0982 98.7267 39.16 98.5414 39.5922 93.354C39.8393 90.3281 41.0125 84.1526 42.1858 79.5827C43.3591 75.0129 45.5822 67.4788 47.1877 62.9089C48.7932 58.3391 51.0781 52.4724 52.3131 49.9404C53.6716 47.038 55.7094 44.1355 57.6237 42.1593C59.3528 40.4302 62.5021 38.1453 64.6017 37.0954C66.763 35.9839 70.9003 34.5017 73.8644 33.8224C76.952 33.0814 82.8184 32.2786 87.3263 32.0315C91.7724 31.7845 106.84 31.5375 146.299 31.414V31.414ZM16.0031 126.393C15.1386 127.01 13.8418 128.74 13.0391 130.283C11.804 132.63 11.6805 133.309 12.298 135.471C12.6685 136.953 14.0271 138.991 15.5709 140.535C17.4852 142.449 19.3377 143.561 22.487 144.672C24.8336 145.475 29.4032 146.463 32.4908 146.834C36.6282 147.328 39.7158 147.328 43.6061 146.834C46.6319 146.463 50.2753 145.784 51.8191 145.228C53.3629 144.734 55.5242 143.622 56.5739 142.82C57.6855 142.017 58.9823 140.658 59.3528 139.794C59.9703 138.559 59.9703 137.941 59.3528 136.706C58.8588 135.656 56.7592 134.297 52.8688 132.445C49.7813 130.963 45.4587 129.172 43.2973 128.431C41.1978 127.751 37.0604 126.64 34.0346 125.961C31.0705 125.343 27.1184 124.664 25.2659 124.478C23.4133 124.355 20.8815 124.417 19.7082 124.725C18.5349 124.972 16.8677 125.714 16.0031 126.393Z" fill="#437FEC"/>
<path d="M158.958 66.3054L158.773 46.0499L158.649 25.8561H294.318L294.194 66.3054H158.958Z" fill="#3B2E85"/>
<path d="M158.526 101.567C158.464 90.5751 158.649 81.4354 158.896 81.1884C159.205 80.9413 189.772 80.8796 294.132 81.1266L294.441 121.576H158.588L158.526 101.567Z" fill="#3B2E85"/>
<path d="M158.896 176.846L158.773 156.591L158.588 136.397H294.318L294.132 176.846H158.896Z" fill="#3B2E85"/>
<path d="M158.526 212.108C158.464 201.116 158.649 191.915 158.958 191.729C159.205 191.482 189.772 191.359 294.194 191.606L294.503 232.055H158.649L158.526 212.108Z" fill="#3B2E85"/>
<path d="M226.658 0.086064C238.458 -0.0588289 250.408 -0.0747559 252.059 0.474736C253.973 1.15404 256.197 2.5128 257.185 3.56263C258.605 5.22995 258.852 6.0333 258.852 9.18274V12.8878H194.466V9.18274C194.466 6.03325 194.713 5.23 196.133 3.56263C197.121 2.51284 199.344 1.15404 201.258 0.474736C202.907 -0.0748767 214.858 -0.0588328 226.658 0.086064Z" fill="#3B2E85"/>
</svg>
